<svg version="1" xmlns="http://www.w3.org/2000/svg" width="346.667" height="346.667" viewBox="0 0 260.000000 260.000000"><path d="M0 130v130h260V0H0v130zm151.5-81.6c1.5 5.2 2.8 15.7 4.4 36.1 2.1 26.1 3.3 38.3 4.2 42 1.7 6.6 7.1 12.8 19.4 22 16.1 12 20.2 18.2 19.3 29-.8 9.3-8 15.8-23 20.7-3.8 1.2-6.8 2.5-6.8 2.9 0 .3 2.4 1.7 5.3 3 4.6 2.1 6.7 2.4 17.7 2.4 11.5 0 13-.2 18.3-2.7 6.5-3.1 16.6-12.1 20.8-18.7 3.3-5.1 3.8-11 1.5-17.3-1.6-4.4-7.5-13.8-8.6-13.8-1.1 0-1.8 3.3-3.4 16.8-.8 6.3-1.7 11.6-2 11.9-.3.3-1.2 0-2.1-.7-1.2-1-1.5-3.8-1.5-13.7 0-13 1.3-21.6 5.4-34.1l2.3-7.3 7.5 13.8c9.7 17.9 10.3 19.6 10.1 32.3-.2 15.6-2.1 20-13.7 31.6-10.2 10.2-14.7 12.5-28.2 14.5-12.9 2-21.5-.8-33.9-10.6l-7-5.7-9.1.4c-8 .3-9.5.6-12.5 3-4.2 3.1-12.7 5.8-18.6 5.8-5.1 0-10.8-2.6-15.2-7.1-12.1-12.1-10-27.5 9.1-64.7 5.4-10.7 9.7-19.6 9.4-19.9-1.2-1.2-6.1 3.9-11.3 11.7-3 4.7-6.4 9.7-7.4 11.2-1.1 1.5-5.7 9.7-10.4 18.3-10.7 19.7-14.7 25.5-22.8 33.3-8.8 8.4-15.9 11.6-23.8 10.9-16.8-1.5-28.8-19.7-24.4-36.9 4.3-16.8 16.8-30.6 45-49.4C87.1 105 86 105.6 86 107c0 2.4-10.6 12.2-20.6 19.1-5.8 4-15.6 12.1-21.9 18.1-14.7 14.1-17.9 19.8-18 32.8 0 10.8 2.1 15.4 8.6 18.8 3.5 1.9 5.5 2.3 9.9 1.9 17.4-1.5 29.9-13.3 43.9-41.6 6.7-13.6 20.5-36.7 24.5-41 3.4-3.7 11.3-9.1 13.3-9.1.7 0 1.7.8 2.2 1.9 1.8 3.4-1.5 12.8-11.8 33.6-5.5 11-11 22.9-12.2 26.5-4 12-2.4 20.7 4.8 25.6 3.6 2.4 10.1 3.7 13.8 2.8l2.5-.6-2.2-3.7c-3.5-5.5-3.1-14.4 1.2-24.4 4.2-10.2 8.3-15.4 15-19.5 6.1-3.6 8.5-4 11.2-1.5 2.9 2.6 2.7-6.8-1.7-58.2-.8-10.5-2.3-22.4-3.1-26.5-1.6-7.1-1.5-16.1.2-20.4.6-1.6.8-1.6 2.5 0 1.1 1 2.6 4 3.4 6.8z"/><path d="M159 167.4c0 10.1.3 19.1.6 20 .9 2.4 5.3 2 17.2-1.9 11.1-3.6 15.2-5.7 15.2-7.9 0-3.1-6.9-10.1-16.1-16.2-5.5-3.7-11.3-7.9-13-9.5-1.7-1.6-3.3-2.9-3.5-2.9-.2 0-.4 8.3-.4 18.4zM141.5 158.6c-3.9 2-9.3 7.2-11.1 10.6-1.6 3.2-1.8 9.1-.4 11.8 1.6 3 9.2 7 13.4 7 3.3 0 3.9-.4 5.2-3.5.8-1.9 1.4-6.4 1.3-10.2-.1-14.3-2.5-18.8-8.4-15.7z"/></svg>