<svg xmlns="http://www.w3.org/2000/svg" width="300" height="132" viewBox="0 0 128.571 56.474"
     shape-rendering="geometricPrecision" text-rendering="geometricPrecision" image-rendering="optimizeQuality"
     fill-rule="evenodd" clip-rule="evenodd">
    <defs>
        <style>.ailogo0,.ailogo1{fill:#bf8034;fill-rule:nonzero} .ailogo2{fill:#bf8034;}</style>
    </defs>
    <g id="Layer_x0020_1">
        <g id="_1421492556400">
            <path class="ailogo1"
                  d="M124.843 34.692V13.187c0-.168.053-.421.053-.812 0-.338.034-.728.168-1.153a87.61 87.61 0 001.354-5.167c.373-1.61.881-3.359 1.562-5.19.217-.589.39-.846.473-.846.087.053.118.257.118.595 0 1.323-.031 2.763-.083 4.42-.035 1.61-.087 3.359-.118 5.086-.051 1.831-.086 3.661-.139 5.527 0 1.914 0 3.779-.082 5.559-.035 1.83-.035 5.362-.086 7.007-.035 1.61-.083 3.068-.083 4.287 0 .98-.087 1.948-.255 2.898-.119.964-.287 1.862-.543 2.712a13.291 13.291 0 01-.677 2.286c-.222.677-.425 1.237-.594 1.527-.426.812-.677 1.185-.847 1.238-.46.118-.221-7.937-.221-8.469zM108.777 42.872c-.287.134-.507.046-.594-.204-.048-.17.034-.426.256-.595.647-.425 1.44-.899 2.339-1.405.932-.46 1.866-1.016 2.846-1.61a21.636 21.636 0 002.712-1.832c.85-.629 1.492-1.306 1.952-2.035.473-.728.642-1.44.59-2.286-.082-.816-.508-1.662-1.354-2.594-.677-.729-1.492-1.272-2.46-1.693-.929-.391-1.861-.594-2.811-.511-.17.086-.256.034-.373-.083-.135-.087-.17-.303-.083-.647.286-2.03.643-4.066.981-6.117.086-.374.372-.625.846-.625 1.73 0 3.223.421 4.46 1.271 1.184.846 2.152 2.03 2.881 3.611.594 1.27.846 2.676.846 4.065 0 1.544-.204 2.984-.625 4.425-.477 1.523-1.119 2.933-1.97 4.234-.846 1.376-1.778 2.509-2.88 3.441-1.32 0-2.544.088-3.814.308a51.186 51.186 0 00-3.745.882zM58.829 36.175c.087-1.133.174-2.491.308-3.896.117-1.406.421-2.881.795-4.425.168-.591.39-.881.594-.881.256 0 .39.256.338.762a25.912 25.912 0 01-.169 1.866c-.035.73-.035 1.354-.035 2.001.087.677.17 1.301.374 1.913.168.595.56 1.05 1.02 1.388 1.114.73 2.641 1.324 4.507 1.78 1.914.477 3.948.764 6.234.984 2.257.169 4.678.304 7.185.257 2.544 0 5.004-.088 7.424-.292 2.374-.221 4.713-.472 6.881-.863 2.17-.338 4.035-.764 5.611-1.306 1.02-.304 2.07-.728 3.05-1.236a14.315 14.315 0 002.712-1.914 10.987 10.987 0 002.051-2.408c.543-.95.882-1.965 1.102-3.067.036-.629.204-.968.457-.968.255 0 .425.257.39.763-.083 3.051-.811 5.815-2.17 8.27-1.318 2.508-3.388 4.509-6.286 6.071-1.22.728-2.794 1.406-4.83 2a62.562 62.562 0 01-6.629 1.575c-2.421.455-4.929.798-7.523 1.102-2.626.251-5.134.338-7.645.338-2.404 0-4.712-.087-6.778-.425-2.086-.304-3.831-.812-5.184-1.523-1.579-.763-2.629-1.865-3.189-3.237-.508-1.358-.678-2.88-.595-4.629z"/>
            <path class="ailogo1"
                  d="M77.121 33.223V13.187c0-.187.052-.438.052-.812 0-.338.034-.728.169-1.153.543-1.814.963-3.524 1.353-5.168a43.79 43.79 0 011.562-5.22c.218-.56.391-.815.474-.815.087.034.116.255.116.595-.082 3.896-.168 7.674-.338 11.423-.082 3.779-.168 7.559-.252 11.373 0 .98-.086 1.947-.256 2.897-.117.964-.285 1.861-.542 2.712a13.19 13.19 0 01-.677 2.287c-.221.676-.425 1.236-.594 1.527-.425.812-.677 1.185-.846 1.236-.135.035-.221-.221-.221-.846zM50.999 31.431c-.425-.168-.763-.307-.898-.443-.624 2.596-1.441 4.934-2.456 7.103-1.019 2.17-2.169 4.035-3.441 5.558-1.27 1.575-2.628 2.712-4.121 3.527-1.488.846-3.016 1.238-4.678 1.15-.71 0-1.301-.268-1.812-.863a4.298 4.298 0 01-1.238-1.948 8.53 8.53 0 01-.594-2.29c-.048-.812 0-1.442.222-1.997.086-.087.168-.121.338-.173h.594c.17.052.426.086.594.086.204.087.374.087.422.087.29.048.512-.173.716-.593.59-1.02.928-2.292 1.067-3.902.169-1.574.251-3.237.251-4.964 0-1.713-.082-3.405-.134-5.101-.087-1.61.047-5.328.181-6.565.087-.816.29-1.83.594-3.05.338-1.154.677-2.426 1.05-3.832.391-1.27.73-2.629 1.02-3.982a35.06 35.06 0 00.729-3.745c.03-.46.204-.681.421-.681.256 0 .338.221.338.681 0 1.068.052 2.473.052 4.2.087 1.779.087 3.78.035 5.901a160.565 160.565 0 01-.257 6.847c-.134 2.372-.419 6.902-.757 9.106-.339 2.257-.764 4.339-1.324 6.153-.59 1.914-1.353 3.44-2.252 4.595.642.117 1.406.117 2.252.117.851 0 1.662-.117 2.513-.426.898-.204 1.744-.59 2.542-1.131.812-.513 1.54-1.289 2.17-2.257.676-.932 1.236-2.169 1.61-3.61.42-1.44.642-3.184.728-5.353.03-.851.03-1.866-.052-3.051-.034-1.154-.117-2.373-.17-3.614a87.862 87.862 0 01-.203-3.558c-.087-1.202-.006-3.567-.006-4.495 0-.17 0-.426.035-.764.087-.256.087-.594.135-.933.086-.338.12-.677.173-.985.083-.286.083-.59.083-.846.116-.425.255-1.102.508-2.065.221-.985.477-2.052.728-3.154.256-1.102.508-2.17.763-3.138.256-.98.426-1.778.543-2.372.17-.508.391-.73.594-.642.252.134.339.39.304.728-.086.88-.134 2.07-.222 3.558-.034 1.527-.082 3.137-.082 4.847v5.055c0 1.691-.033 4.395.001 5.497.088.98.257 1.744.508 2.287.541 1.04 1.582 2.077 2.82 2.132.677.139 1.389.088 2.152-.117.729-.169 1.492-.425 2.222-.898a7.248 7.248 0 001.948-1.575c.256-.17.508-.373.812-.681a5.31 5.31 0 011.019-.711c.338-.218.677-.304 1.102-.34.373 0 .711.088 1.102.34.56.46.98.68 1.406.628.373 0 .676-.168.963-.46.256-.251.56-.642.729-1.067.256-.421.424-.846.594-1.236.169-.287.338-.764.594-1.272.222-.507.426-.963.595-1.523a.98.98 0 01.303-.29h.287a.457.457 0 01.256.169c.082.121.135.204.082.291 0 .222-.082.39-.169.642-.082.29 0 .542.222.711.338.17.628.221.88.087.256-.087.477-.204.647-.508.203-.204.373-.511.507-.849a5.88 5.88 0 00.338-.881c.17-.269.304-.643.426-1.15.135-.477.218-.817.252-1.155a.704.704 0 01.477-.424c.251-.036.373.086.373.424 0 .508-.035 1.102-.204 1.914-.169.815-.425 1.61-.816 2.425-.372.846-.793 1.61-1.353 2.286-.561.73-1.155 1.238-1.865 1.494-.257.204-.508.338-.764.372-.304.134-.56.17-.899.17a8.662 8.662 0 01-1.236 1.358c-.426.42-.881.863-1.354 1.201-.46.339-.967.625-1.441.764-.477.204-.932.287-1.357.117-.256 0-.508-.086-.677-.256-.17-.117-.391-.199-.559-.199a3.996 3.996 0 00-1.698.759c-.472.425-.932.88-1.406 1.44-.425.595-.846 1.189-1.27 1.749a11.87 11.87 0 01-1.354 1.778 5.78 5.78 0 01-1.662 1.307c-.731.457-2.284.692-3.141.474zM23.618 22.259c.56.455 1.154.676 1.866.624.424.052.764 0 1.102-.082.338-.034.642-.087.932-.122.304 0 .608.035.864.088.286.116.542.372.798.676.642.712 1.15 1.576 1.524 2.595.39 1.015.559 2.204.559 3.523 0 1.982-.252 4.069-.729 6.187a40 40 0 01-2.034 6.204c-.899 2.001-1.948 3.914-3.186 5.645a24.79 24.79 0 01-3.982 4.626c-1.459 1.323-3.016 2.39-4.713 3.153-1.662.76-3.406 1.098-5.15 1.098-2.203 0-4.035-.386-5.509-1.184-1.494-.812-2.678-1.883-3.576-3.272-.88-1.323-1.527-2.846-1.9-4.59-.386-1.697-.525-3.475-.473-5.341.087-2.221.255-4.287.594-6.253.303-1.952.763-3.778 1.271-5.561a72.746 72.746 0 011.948-5.337c.73-1.745 1.458-3.575 2.222-5.441.286-.729.59-1.016.794-.899.221.135.221.508.052 1.068-.56 1.61-1.102 3.185-1.662 4.764-.542 1.557-1.102 3.133-1.522 4.66a49.417 49.417 0 00-1.155 4.542c-.286 1.523-.46 2.933-.46 4.288 0 1.83.343 3.44.933 4.763.682 1.306 1.492 2.404 2.46 3.306 1.016.846 2.118 1.524 3.32 1.996 1.223.426 2.408.681 3.609.681a11.815 11.815 0 004.543-.646 16.913 16.913 0 004.07-2.031 19.27 19.27 0 003.44-2.932 19.469 19.469 0 002.626-3.359 12.782 12.782 0 001.574-3.302c.391-1.102.56-2.034.512-2.798-.086-1.202-.424-2.053-1.02-2.473-.642-.46-1.318-.595-2.03-.291-.682.291-1.241.426-1.83.291a3.746 3.746 0 01-1.58-.764c-.456-.373-.881-.933-1.185-1.528-.338-.642-.543-1.318-.677-2.03-.168-.85-.256-1.83-.256-2.932 0-1.56.349-2.834.82-4.347.687-2.21 1.314-3.472 2.282-5.571a49.074 49.074 0 011.662-3.016 3.606 3.606 0 01-1.375-.85c-.456-.339-.795-.725-.963-1.185-.17-.304-.139-.898.117-1.744.256-.85.559-1.748.985-2.712.386-.932.846-1.83 1.318-2.676.508-.816.934-1.411 1.306-1.749.339 0 .898.087 1.714.303.76.256 1.523.543 2.37.933.798.425 1.562.899 2.204 1.41.681.508 1.019 1.016 1.102 1.557.134.847 0 1.698-.421 2.509-.374.845-1.138 1.779-2.374 2.798-1.865 1.71-3.41 3.185-4.595 4.539-1.526 1.772-5.791 6.159-3.136 8.191zM79.7 53.094c0-.034.087-.286.309-.59.169-.342.42-.68.676-1.102.287-.424.63-.798.968-1.222.39-.387.729-.76.98-1.104.338-.302.595-.554.816-.724.204-.173.339-.256.421-.221.425.777.933 1.319 1.393 1.796.473.456.933.795 1.319 1.051.373.304.763.507 1.067.594.291.134.46.252.542.304.174.117.087.372-.251.846-.291.477-.729.985-1.155 1.492-.455.542-.932 1.05-1.44 1.527-.455.421-.846.677-1.05.677-.304.118-.677.035-1.236-.134-.474-.205-.985-.512-1.493-.85a12.009 12.009 0 01-1.305-1.133c-.304-.425-.508-.815-.561-1.207zM62.837 56.042c.079-.182.186-.383.313-.608.131-.221.259-.446.388-.667.131-.225.271-.419.408-.6.142-.176.277-.289.407-.341a253.921 253.921 0 014.312-2.036 72.468 72.468 0 004.276-2.137c.458-.225.76-.327.896-.315.055.005.085.027.085.078l-.003.029c-.014.158-.152.385-.416.688-.282.351-.566.714-.85 1.098-.282.381-.558.656-.824.821-.266.162-.751.436-1.453.81a68.78 68.78 0 01-2.336 1.178c-.853.412-1.691.821-2.526 1.235-.834.406-1.513.734-2.033.972-.259.129-.477.205-.651.222-.019-.001-.034.005-.041.004-.063-.005-.089-.04-.083-.107.006-.069.052-.176.138-.319l-.007-.005z"/>
            <path class="ailogo1"
                  d="M100.444 15.253c-.321-.237-.866-.56-1.261-.197-1.961 1.682-1.786 4.227-2.519 6.595-.071.357-.01.972-.383 1.279-.115-.069-.246-.029-.38-.016-.172-2.248.861-5.914-2.054-6.996-.277.19-.546.73-1.001.506-.951-.336-.559-1.536-.688-2.278.344-.332.152-.906.611-1.168.894-.495 1.659.13 2.375.543.238.489 1.058.865.936 1.525.476.707.193 1.653.56 2.344.263-1.132.524-2.292 1.092-3.347.646-1.09 1.654-2.325 3.078-2.118.305.077.505.462.671.769-.074.87-.134 2.144-1.037 2.559zM95.465 4.277c.161.793-.279 1.781.512 2.403.157-.313.28-.703.611-.898.403-.014.868.047 1.018.464.369.718.159 1.306.015 2.022-.198.452-.654 1.01-1.108 1.326a1.459 1.459 0 01-1.667-.48c-1.383-3.017-.122-6.57 1.948-9.045.163.01.417-.15.519.055-.338 1.464-1.51 2.689-1.848 4.153zM67.633 3.37c-.32-.237-.866-.56-1.261-.197-1.961 1.682-1.786 4.227-2.519 6.594-.071.358-.01.973-.383 1.28-.115-.069-.246-.029-.379-.016-.173-2.249.86-5.914-2.055-6.996-.277.19-.547.729-1.001.505-.951-.335-.559-1.535-.688-2.277.344-.332.152-.906.611-1.168.894-.495 1.659.13 2.375.543.238.489 1.058.865.936 1.524.476.708.193 1.653.56 2.345.263-1.133.524-2.292 1.092-3.347.646-1.091 1.655-2.325 3.078-2.118.305.077.506.461.671.769-.074.87-.134 2.144-1.037 2.559z"/>
            <path class="ailogo2" d="M52.36 41.217c.506.923.375 2.108.569 3.101-.007 1.291.29 2.519.292 3.768.267 2.411 4.033 2.442 3.358 5.164-.509.994-1.628 1.261-2.561 1.559.696.573 1.761.648 2.665.514 1.058-.105 1.826-.649 2.665-1.761.319-.336.325-.896.24-1.331-.086-.578-.545-1.017-.814-1.526l-.08.168c-.145.693-.223 1.442-.311 2.296-.109.266-.216.098-.322.019-.141-.768-.09-1.687.008-2.493.102-.719.311-1.288.524-1.959.026-.092.057-.178.086-.275.348.785.858 1.629 1.291 2.44.303.834.258 1.585.146 2.527-.199.973-1.024 1.726-1.706 2.308-.739.622-2.555.916-3.432.535-.743-.224-1.328-.857-1.93-1.303-.723.107-1.457-.152-1.991.481-.558.245-1.27.432-1.838.289-.894-.347-1.509-1.095-1.553-2.074.212-2.085 1.442-3.854 2.324-5.704l-.068-.075c-.85.488-1.137 1.486-1.734 2.224-1.104 1.839-1.831 4.171-4.01 5.103-.592.078-1.274.072-1.77-.333a2.751 2.751 0 01-1.122-2.396c.399-2.5 2.822-3.885 4.805-5.207.349-.219.597-.451.964-.605-.562 1.185-1.952 1.697-2.847 2.513-.749.637-1.284 1.08-1.888 1.865-.552.848-.845 2.118-.216 3.025.648.913 2.434.384 3.003-.194.369-.282.553-.507.87-.889.333-.486.704-1.013.94-1.568.604-1.319 1.419-2.534 2.156-3.789a3.85 3.85 0 011.253-.935c.18-.005.244.156.294.288.021.445-.369 1.475-.612 1.9-.627 1.203-1.324 2.367-1.664 3.706-.157.696.092 1.304.64 1.69.429.18.956.256 1.373.098-.57-.51-.524-1.405-.278-2.045.29-.755.644-1.558 1.338-1.977 1.01-.612.907-.175 1.21-.027.048-1.232-.105-2.468-.159-3.698-.088-.248-.062-.62-.096-.937-.15-1.013-.091-2.194-.422-3.187-.06-.52.039-.917.136-1.407.124-.051.16.094.236.148l.038-.034zm-.029 10.162c.136.718.335 1.754-.191 2.373-.563.097-.939-.221-1.352-.52a1.133 1.133 0 01-.126-.932c.255-.497.695-.97 1.237-1.179.21-.055.346.103.432.258zm3.398.931c.126.208.396.408.275.667l-.459.286c-.743.214-1.428.567-2.232.577-.298-.934.001-1.751-.072-2.724l.006-.825c.622.907 1.787 1.131 2.482 2.019z"/>
            <g>
                <path class="ailogo1"
                      d="M18.013 15.253c-.32-.237-.865-.56-1.26-.197-1.962 1.682-1.787 4.227-2.519 6.595-.072.357-.01.972-.384 1.279-.115-.069-.246-.029-.379-.016-.173-2.248.86-5.914-2.054-6.996-.278.19-.547.73-1.002.506-.951-.336-.559-1.536-.688-2.278.345-.332.152-.906.611-1.168.894-.495 1.659.13 2.375.543.238.489 1.058.865.936 1.525.476.707.193 1.653.56 2.344.264-1.132.524-2.292 1.092-3.347.646-1.09 1.655-2.325 3.078-2.118.305.077.506.462.671.769-.074.87-.134 2.144-1.037 2.559zM13.034 4.277c.161.793-.279 1.781.512 2.403.157-.313.28-.703.611-.898.403-.014.868.047 1.018.464.369.718.159 1.306.015 2.022-.197.452-.654 1.01-1.108 1.326a1.457 1.457 0 01-1.666-.48c-1.384-3.017-.123-6.57 1.948-9.045.163.01.416-.15.518.055-.338 1.464-1.51 2.689-1.848 4.153z"/>
            </g>
        </g>
    </g>
</svg>