<svg xmlns="http://www.w3.org/2000/svg" width="500" height="524" viewBox="0 0 53.406 56.003"
     shape-rendering="geometricPrecision" text-rendering="geometricPrecision" image-rendering="optimizeQuality"
     fill-rule="evenodd" clip-rule="evenodd">
    <defs>
        <style>.mmlogo{fill:#bf8034;}</style>
    </defs>
    <path class="mmlogo" d="M31.291 4.126c.79 5.7 1.171 15.521 1.589 17.658-.021 3.646.818 7.112.824 10.637.752 6.805 11.384 6.892 9.479 14.577-1.437 2.804-4.595 3.558-7.231 4.398 1.966 1.618 4.974 1.83 7.525 1.451 2.986-.295 5.153-1.83 7.523-4.971.898-.948.917-2.527.674-3.755-.242-1.633-1.537-2.873-2.296-4.309l-.226.475c-.409 1.956-.628 4.071-.877 6.48-.309.753-.61.278-.91.056-.397-2.168-.252-4.764.024-7.039.286-2.028.877-3.634 1.478-5.528.074-.26.16-.504.242-.778.982 2.217 2.423 4.599 3.645 6.889.855 2.352.728 4.473.412 7.132-.563 2.747-2.891 4.871-4.814 6.515-2.089 1.755-7.214 2.585-9.689 1.509-2.096-.632-3.749-2.417-5.448-3.677-2.041.303-4.111-.429-5.619 1.359-1.575.691-3.586 1.218-5.187.813-2.524-.977-4.261-3.09-4.386-5.852.599-5.886 4.071-10.878 6.562-16.101l-.192-.212c-2.4 1.379-3.209 4.194-4.894 6.278-3.117 5.192-5.17 11.774-11.319 14.403-1.672.22-3.596.205-4.997-.939a7.767 7.767 0 01-3.166-6.764c1.124-7.054 7.966-10.966 13.562-14.696.983-.619 1.685-1.273 2.72-1.707-1.586 3.344-5.508 4.788-8.035 7.093-2.115 1.798-3.625 3.048-5.329 5.263-1.558 2.394-2.387 5.978-.611 8.539 1.831 2.578 6.87 1.084 8.476-.547 1.042-.798 1.561-1.431 2.456-2.51.94-1.371 1.987-2.859 2.653-4.426 1.706-3.723 4.006-7.153 6.088-10.695 1.009-1.125 2.188-2.018 3.536-2.639.507-.015.687.44.83.812.059 1.256-1.043 4.165-1.727 5.363-1.771 3.396-3.739 6.68-4.699 10.461-.443 1.963.261 3.68 1.807 4.771 1.21.506 2.699.723 3.876.275-1.609-1.438-1.48-3.964-.784-5.772.819-2.129 1.818-4.397 3.775-5.58 2.853-1.726 2.561-.492 3.417-.077.134-3.478-.299-6.964-.449-10.436-.248-.701-.175-1.751-.272-2.647-.424-2.858-1.111-18.867-2.044-21.669-.17-1.467.11-2.588.382-3.972 1.102-.453 1.585 3.658 1.646 4.091zm-.1 37.59c.385 2.025.947 4.95-.539 6.699-1.588.273-2.649-.625-3.816-1.468-.469-.753-.642-1.734-.354-2.631.719-1.403 1.961-2.738 3.49-3.33.595-.152.978.292 1.219.73zm9.593 2.629c.355.585 1.117 1.15.776 1.882l-1.296.806c-2.097.604-4.031 1.601-6.302 1.629-.84-2.635.005-4.943-.201-7.688l.015-2.329c1.756 2.559 5.047 3.19 7.008 5.7z"/>
</svg>